# xmcd
#
# Track frame offsets:
#	150
#	26789
#	42205
#	59965
#	78156
#	105732
#	123827
#	140070
#	166142
#	183277
#	199807
#
# Disc length: 2982 seconds
#
# Revision: 0
# Processed by: cddbd v1.5.1PL2 Copyright (c) Steve Scherf et al.
# Submitted via: MusicManager 7.3.0.0 
#
DISCID=980ba40b
DTITLE=AC/DC - The Best CD 2
DYEAR=1900
DGENRE=rock
TTITLE0=She's Got The Jack
TTITLE1=Girls Got Rhythem
TTITLE2=You Shook Me All Night Long
TTITLE3=High Voltage
TTITLE4=Let There Be Rock
TTITLE5=Have A Drink On Me
TTITLE6=TNT
TTITLE7=Problem Child
TTITLE8=Money Talks
TTITLE9=Rock and Roll Damnation
TTITLE10=Shoot To Thrill
EXTD=
EXTT0=
EXTT1=
EXTT2=
EXTT3=
EXTT4=
EXTT5=
EXTT6=
EXTT7=
EXTT8=
EXTT9=
EXTT10=
PLAYORDER=
